HIERARCHY
ROOT bottle1_body
{
	OFFSET 0.000000 0.000000 0.000000
	CHANNELS 6 Xposition Yposition Zposition Yrotation Xrotation Zrotation
	End Site
	{
		OFFSET 0.000000 0.000000 0.000000
	}
}
MOTION
Frames: 189
Frame Time: 0.008333334
1.791494 4.663188 3.831944 -102.704100 0.583247 5.315729 
1.783656 4.656164 3.830290 -102.659200 0.786527 5.391658 
1.776190 4.649645 3.829078 -102.565300 0.966584 5.483311 
1.768690 4.642700 3.828408 -102.475700 1.182840 5.399332 
1.760756 4.636393 3.827869 -102.333600 1.422461 5.439441 
1.752789 4.629937 3.828150 -102.251600 1.579076 5.396846 
1.744872 4.624038 3.827903 -102.156300 1.726501 5.400546 
1.737438 4.621955 3.829630 -102.018800 1.925836 5.354868 
1.731828 4.622553 3.833424 -101.854300 1.992771 5.177691 
1.726926 4.621480 3.836029 -101.793500 1.992731 5.010613 
1.722369 4.621763 3.837616 -101.753500 1.962018 4.906108 
1.719188 4.621941 3.838947 -101.649200 1.896540 4.878074 
1.716402 4.621895 3.839911 -101.610500 1.793531 4.810751 
1.714125 4.621472 3.839570 -101.545000 1.663372 4.867299 
1.712224 4.621823 3.838787 -101.469400 1.596117 4.928202 
1.710314 4.622127 3.837898 -101.317800 1.531673 5.008998 
1.707840 4.622387 3.836754 -101.203900 1.477390 5.111533 
1.704037 4.622493 3.835673 -101.131700 1.427590 5.191679 
1.699412 4.622866 3.834700 -101.063200 1.482929 5.230186 
1.694379 4.622637 3.835029 -100.911700 1.543480 5.174865 
1.688134 4.622473 3.835578 -100.861900 1.600363 5.070200 
1.681778 4.622580 3.837676 -100.720800 1.736511 4.984194 
1.675621 4.622538 3.841328 -100.684900 1.941369 4.764699 
1.670926 4.622005 3.845367 -100.662100 1.974288 4.502922 
1.667577 4.621620 3.849790 -100.604800 1.952711 4.314562 
1.666375 4.621025 3.853154 -100.650400 1.782326 4.151358 
1.667456 4.619827 3.855751 -100.731400 1.488827 4.075800 
1.670338 4.618330 3.857198 -100.880600 1.207408 4.043787 
1.670600 4.618669 3.860032 -100.997100 1.158456 3.994545 
1.669401 4.618523 3.862364 -101.148200 1.135460 3.870556 
1.668590 4.618261 3.863223 -101.229700 1.133447 3.821796 
1.668292 4.618197 3.863751 -101.317200 1.147945 3.821752 
1.668663 4.618190 3.864161 -101.393200 1.135550 3.833357 
1.669276 4.618124 3.865267 -101.476300 1.112180 3.837404 
1.670313 4.618042 3.866647 -101.532700 1.128255 3.837092 
1.671339 4.618056 3.867850 -101.616900 1.103414 3.845516 
1.672804 4.617982 3.869160 -101.658800 1.050305 3.794495 
1.674113 4.618039 3.870443 -101.716000 1.063892 3.770106 
1.675273 4.617971 3.871622 -101.697500 1.044684 3.760297 
1.675791 4.617951 3.872553 -101.808500 0.980165 3.686152 
1.676122 4.617883 3.872947 -101.810700 0.973069 3.662297 
1.675980 4.617919 3.872646 -101.830800 0.965146 3.676138 
1.675148 4.617788 3.871459 -101.778100 0.992436 3.711476 
1.673066 4.617675 3.869406 -101.782900 1.040603 3.771901 
1.669515 4.617869 3.866916 -101.781700 1.147011 3.868169 
1.665541 4.617886 3.864112 -101.742200 1.301919 3.886690 
1.662183 4.618147 3.860752 -101.758600 1.482227 3.972671 
1.659922 4.618031 3.856967 -101.778000 1.535950 4.069467 
1.657971 4.617803 3.852953 -101.754100 1.557671 4.165927 
1.656265 4.618011 3.850377 -101.736700 1.590870 4.215168 
1.655443 4.618153 3.849133 -101.684500 1.672866 4.250759 
1.655545 4.618001 3.848880 -101.684200 1.672376 4.256965 
1.656156 4.617907 3.849625 -101.710700 1.628827 4.232788 
1.657043 4.617523 3.851673 -101.749800 1.571082 4.149841 
1.658376 4.617487 3.854688 -101.753000 1.525080 4.067817 
1.660562 4.617775 3.857975 -101.756100 1.520790 4.013567 
1.662596 4.617646 3.860960 -101.820900 1.410767 3.895636 
1.664683 4.617598 3.863675 -101.786100 1.272175 3.847001 
1.666819 4.617768 3.865855 -101.750500 1.211263 3.878374 
1.668912 4.617813 3.867263 -101.750200 1.168427 3.887790 
1.670037 4.617200 3.868383 -101.800000 1.073058 3.779573 
1.670482 4.617561 3.869204 -101.787700 1.073357 3.816457 
1.670287 4.617515 3.869644 -101.770600 1.087291 3.779408 
1.669853 4.617465 3.869126 -101.748300 1.086111 3.839629 
1.668818 4.617652 3.867749 -101.763300 1.134978 3.881455 
1.666710 4.617486 3.866387 -101.741900 1.201501 3.836698 
1.664446 4.617509 3.864210 -101.785600 1.270657 3.840122 
1.662363 4.617673 3.861562 -101.782000 1.443115 3.934057 
1.660500 4.617543 3.858605 -101.767100 1.519401 3.984269 
1.658562 4.617243 3.855299 -101.760000 1.508585 4.030501 
1.657201 4.617239 3.852522 -101.749900 1.562264 4.105936 
1.655748 4.617394 3.850285 -101.746500 1.621589 4.149812 
1.655220 4.617521 3.849098 -101.692300 1.650357 4.215365 
1.654973 4.617392 3.848764 -101.738600 1.648161 4.177022 
1.655311 4.617440 3.849875 -101.774900 1.670392 4.139441 
1.656174 4.617023 3.851783 -101.761000 1.551032 4.092532 
1.657441 4.616999 3.853585 -101.772100 1.522912 4.048627 
1.659018 4.616903 3.855473 -101.762600 1.487635 3.972862 
1.661088 4.617237 3.857695 -101.740400 1.488910 3.957239 
1.662943 4.617381 3.859845 -101.713300 1.501173 3.922064 
1.664086 4.617573 3.861011 -101.823900 1.356936 3.871169 
1.665635 4.617376 3.862268 -101.762300 1.285953 3.862248 
1.666601 4.617249 3.862845 -101.737800 1.244430 3.891328 
1.666612 4.617328 3.863228 -101.747100 1.244770 3.889254 
1.666155 4.617310 3.863031 -101.743200 1.267454 3.887004 
1.665501 4.617273 3.862111 -101.760400 1.281559 3.866135 
1.664146 4.617328 3.860903 -101.774000 1.342294 3.867073 
1.662421 4.617274 3.859714 -101.724200 1.462068 3.914188 
1.660563 4.617332 3.857589 -101.775800 1.496044 3.948317 
1.658945 4.616820 3.855540 -101.788900 1.508796 3.930723 
1.657843 4.616966 3.853273 -101.782800 1.550950 4.075407 
1.656610 4.616974 3.851941 -101.759200 1.576066 4.109552 
1.655150 4.617158 3.850494 -101.780700 1.622935 4.111677 
1.655362 4.617379 3.849871 -101.717100 1.660544 4.193162 
1.655583 4.617189 3.849922 -101.744300 1.593731 4.184851 
1.656605 4.616992 3.851210 -101.747700 1.607750 4.131332 
1.657855 4.617154 3.853259 -101.771300 1.582220 4.139208 
1.660135 4.617445 3.856663 -101.743700 1.583048 4.097037 
1.662038 4.617670 3.860955 -101.711800 1.582221 4.038138 
1.663226 4.617360 3.865430 -101.771300 1.405880 3.932908 
1.665447 4.617327 3.869770 -101.773900 1.266737 3.853662 
1.668562 4.617535 3.872594 -101.740500 1.234266 3.822721 
1.671017 4.617239 3.874398 -101.802900 1.063297 3.780298 
1.672588 4.617203 3.875958 -101.799300 1.080241 3.701371 
1.672907 4.617450 3.876702 -101.823700 1.053854 3.659434 
1.672874 4.617367 3.876313 -101.832800 1.069298 3.685754 
1.672432 4.617230 3.875206 -101.826800 1.102476 3.742116 
1.670823 4.617193 3.874359 -101.796800 1.151679 3.793268 
1.668580 4.617191 3.873284 -101.781700 1.223769 3.807000 
1.665895 4.617168 3.871187 -101.796100 1.305339 3.867524 
1.663527 4.617122 3.868006 -101.791200 1.318534 3.934322 
1.661200 4.617079 3.865063 -101.836600 1.448944 3.937651 
1.659767 4.617153 3.862227 -101.786200 1.585891 4.031725 
1.658646 4.617301 3.858755 -101.730500 1.598379 4.112624 
1.657869 4.617357 3.856362 -101.731500 1.587228 4.183263 
1.656947 4.617164 3.855129 -101.756300 1.584988 4.162319 
1.657114 4.617344 3.855372 -101.714500 1.620127 4.195036 
1.657535 4.617223 3.856928 -101.727500 1.590449 4.169311 
1.658279 4.617117 3.859369 -101.766700 1.591201 4.106077 
1.659466 4.617025 3.862355 -101.788300 1.586707 4.036425 
1.660554 4.616923 3.865096 -101.868000 1.426640 3.936531 
1.662372 4.616837 3.867610 -101.838900 1.365934 3.893699 
1.664523 4.616946 3.870262 -101.850100 1.293706 3.877723 
1.666804 4.617223 3.872892 -101.730900 1.346078 3.867423 
1.668622 4.617256 3.875049 -101.769600 1.281687 3.830508 
1.670058 4.617315 3.876612 -101.741700 1.245326 3.844965 
1.670516 4.617341 3.877534 -101.795300 1.207798 3.809117 
1.670076 4.617117 3.878566 -101.861200 1.126708 3.754383 
1.669847 4.617157 3.879031 -101.858100 1.182101 3.748052 
1.669094 4.617156 3.878960 -101.866200 1.204262 3.777408 
1.668256 4.617235 3.878112 -101.791300 1.299667 3.826926 
1.666211 4.616928 3.877086 -101.823000 1.328392 3.805896 
1.664755 4.616925 3.875035 -101.744200 1.360568 3.853516 
1.663558 4.617077 3.872991 -101.780000 1.425409 3.902526 
1.662715 4.617141 3.870601 -101.784200 1.452973 3.965172 
1.661460 4.616943 3.868576 -101.774200 1.421104 3.977644 
1.660319 4.617163 3.866891 -101.787600 1.478120 4.033301 
1.659367 4.617197 3.865677 -101.831100 1.500908 4.053924 
1.659276 4.617244 3.865258 -101.819700 1.506837 4.083166 
1.659134 4.617105 3.865746 -101.832100 1.491353 4.063438 
1.659295 4.616790 3.866937 -101.824200 1.425929 3.999437 
1.660245 4.616880 3.868485 -101.749100 1.431728 3.995169 
1.661103 4.616771 3.869989 -101.785200 1.417863 3.939774 
1.662535 4.617109 3.871617 -101.799300 1.461163 3.945718 
1.663627 4.617085 3.873481 -101.779500 1.419824 3.899431 
1.664979 4.617036 3.875240 -101.741900 1.380455 3.891954 
1.666409 4.617083 3.877150 -101.750600 1.352671 3.863804 
1.667562 4.616693 3.878780 -101.814900 1.236587 3.803483 
1.668237 4.616785 3.879340 -101.843500 1.157694 3.784292 
1.668516 4.616777 3.879884 -101.852600 1.144227 3.764888 
1.668340 4.616739 3.879925 -101.838800 1.158116 3.766263 
1.667608 4.616737 3.879402 -101.837700 1.188046 3.776074 
1.666710 4.616750 3.878616 -101.781800 1.315919 3.810793 
1.664792 4.616627 3.876855 -101.819000 1.261377 3.816223 
1.664004 4.617001 3.875329 -101.734600 1.411330 3.908805 
1.663028 4.617083 3.873879 -101.770200 1.422734 3.936679 
1.662439 4.617065 3.872175 -101.801600 1.444558 3.959546 
1.661644 4.616799 3.870705 -101.803900 1.414824 3.948304 
1.661111 4.616689 3.869651 -101.784400 1.426679 3.951807 
1.661024 4.616705 3.868591 -101.762800 1.426810 3.963924 
1.660901 4.616550 3.867483 -101.825300 1.401238 3.946164 
1.661147 4.616458 3.866631 -101.808000 1.449787 3.970799 
1.661201 4.616509 3.866007 -101.813400 1.459896 3.971737 
1.661041 4.616504 3.865525 -101.858000 1.448440 3.928294 
1.661196 4.616477 3.865093 -101.850800 1.439194 3.944861 
1.661352 4.616395 3.864804 -101.850000 1.439784 3.948050 
1.661296 4.616403 3.864665 -101.843900 1.449741 3.949272 
1.661175 4.616310 3.864828 -101.863300 1.426070 3.928128 
1.661227 4.616425 3.864836 -101.844800 1.448936 3.941724 
1.661258 4.616462 3.865012 -101.850100 1.447679 3.943938 
1.661297 4.616512 3.865450 -101.845800 1.446843 3.957407 
1.661262 4.616530 3.866133 -101.811100 1.452606 3.967520 
1.661062 4.616522 3.867066 -101.814000 1.432826 3.968277 
1.661146 4.616477 3.867970 -101.804900 1.420483 3.957982 
1.661198 4.616474 3.868919 -101.784200 1.421602 3.939944 
1.661223 4.616477 3.870126 -101.797200 1.411587 3.934128 
1.661575 4.616711 3.871615 -101.854500 1.437578 3.901437 
1.662413 4.616838 3.872911 -101.800300 1.411522 3.916660 
1.663004 4.616837 3.874516 -101.744200 1.393290 3.930545 
1.663450 4.616666 3.876096 -101.808500 1.324853 3.839222 
1.664445 4.616629 3.877303 -101.828900 1.280453 3.803957 
1.665529 4.616540 3.878049 -101.819900 1.266937 3.793207 
1.666278 4.616689 3.878526 -101.833900 1.269052 3.790232 
1.666357 4.616694 3.878529 -101.821700 1.283315 3.794404 
1.666330 4.616798 3.877850 -101.747600 1.333796 3.830812 
1.665802 4.616693 3.876909 -101.746000 1.344046 3.842119 
1.664847 4.616636 3.875613 -101.735200 1.363498 3.859275 
1.663698 4.616868 3.874360 -101.745900 1.396363 3.929940 
1.662625 4.616725 3.873085 -101.795500 1.403994 3.901747 
